<svg version="1.2" width="960" height="432" viewBox="0 0 25400 11430" preserveAspectRatio="xMidYMid" fill-rule="evenodd" stroke-width="28.222" stroke-linejoin="round" xmlns="http://www.w3.org/2000/svg"><defs class="ClipPathGroup"><clipPath id="a" clipPathUnits="userSpaceOnUse"><path d="M0 0h25400v11430H0z"/></clipPath></defs><g class="SlideGroup"><g class="Slide" clip-path="url(#a)"><g class="Page"><g class="com.sun.star.drawing.TextShape"><path class="BoundingBox" fill="none" d="M17565 3948h7581v1988h-7581z"/><text class="TextShape"><tspan class="TextParagraph" font-family="Liberation Sans, sans-serif" font-size="1552" font-weight="700"><tspan class="TextPosition" x="17815" y="5478"><tspan>(</tspan></tspan></tspan></text></g><g class="com.sun.star.drawing.CustomShape"><path class="BoundingBox" fill="none" d="M776 4380h1019v1019H776z"/><path fill="#FDE9A9" d="M1285 5397H777V4381h1016v1016h-508z"/><path fill="none" stroke="#000" d="M1285 5397H777V4381h1016v1016h-508z"/><text class="TextShape"><tspan class="TextParagraph" font-family="Liberation Sans, sans-serif" font-size="635" font-weight="400"><tspan class="TextPosition" x="1038" y="5110"><tspan>Q</tspan></tspan></tspan></text></g><g class="com.sun.star.drawing.CustomShape"><path class="BoundingBox" fill="none" d="M4240 3140h3581v1019H4240z"/><path fill="#E9B913" d="M6030 4157H4241V3141h3578v1016H6030z"/><path fill="none" stroke="#000" d="M6030 4157H4241V3141h3578v1016H6030z"/><text class="TextShape"><tspan class="TextParagraph" font-family="Liberation Sans, sans-serif" font-size="635" font-weight="400"><tspan class="TextPosition" x="4642" y="3870"><tspan>Loop plan</tspan></tspan></tspan></text></g><g class="com.sun.star.drawing.CustomShape"><path class="BoundingBox" fill="none" d="M4240 4407h3581v1019H4240z"/><path fill="#E9B913" d="M6030 5424H4241V4408h3578v1016H6030z"/><path fill="none" stroke="#000" d="M6030 5424H4241V4408h3578v1016H6030z"/><text class="TextShape"><tspan class="TextParagraph" font-family="Liberation Sans, sans-serif" font-size="635" font-weight="400"><tspan class="TextPosition" x="4606" y="5137"><tspan>Hash plan</tspan></tspan></tspan></text></g><g class="com.sun.star.drawing.CustomShape"><path class="BoundingBox" fill="none" d="M4240 5675h3581v1019H4240z"/><path fill="#E9B913" d="M6030 6692H4241V5676h3578v1016H6030z"/><path fill="none" stroke="#000" d="M6030 6692H4241V5676h3578v1016H6030z"/><text class="TextShape"><tspan class="TextParagraph" font-family="Liberation Sans, sans-serif" font-size="635" font-weight="400"><tspan class="TextPosition" x="4446" y="6405"><tspan>Merge plan</tspan></tspan></tspan></text></g><g class="com.sun.star.drawing.ConnectorShape"><path class="BoundingBox" fill="none" d="M1766 3649h2476v1268H1766z"/><path fill="none" stroke="#000" stroke-width="53" d="M1793 4889l1963-995"/><path d="M4241 3649l-593 88 171 338 422-426z"/></g><g class="com.sun.star.drawing.ConnectorShape"><path class="BoundingBox" fill="none" d="M1766 4720h2476v381H1766z"/><path fill="none" stroke="#000" stroke-width="53" d="M1793 4889l1905 21"/><path d="M4241 4916l-566-196-5 379 571-183z"/></g><g class="com.sun.star.drawing.ConnectorShape"><path class="BoundingBox" fill="none" d="M1766 4862h2476v1323H1766z"/><path fill="none" stroke="#000" stroke-width="53" d="M1793 4889l1968 1041"/><path d="M4241 6184l-414-433-177 335 591 98z"/></g><g class="com.sun.star.drawing.TextShape"><path class="BoundingBox" fill="none" d="M200 7199h8229v963H200z"/><text class="TextShape"><tspan class="TextParagraph" font-family="Liberation Sans, sans-serif" font-size="635" font-weight="400"><tspan class="TextPosition" x="450" y="7900"><tspan>Traditional Query Optimizer</tspan></tspan></tspan></text></g><g class="com.sun.star.drawing.CustomShape"><path class="BoundingBox" fill="none" d="M9840 3140h3581v1019H9840z"/><path fill="#92E285" d="M11630 4157H9841V3141h3578v1016h-1789z"/><path fill="none" stroke="#000" d="M11630 4157H9841V3141h3578v1016h-1789z"/><text class="TextShape"><tspan class="TextParagraph" font-family="Liberation Sans, sans-serif" font-size="635" font-weight="400"><tspan class="TextPosition" x="11279" y="3870"><tspan>20</tspan></tspan></tspan></text></g><g class="com.sun.star.drawing.CustomShape"><path class="BoundingBox" fill="none" d="M9840 4407h3581v1019H9840z"/><path fill="#92E285" d="M11630 5424H9841V4408h3578v1016h-1789z"/><path fill="none" stroke="#000" d="M11630 5424H9841V4408h3578v1016h-1789z"/><text class="TextShape"><tspan class="TextParagraph" font-family="Liberation Sans, sans-serif" font-size="635" font-weight="400"><tspan class="TextPosition" x="11279" y="5137"><tspan>25</tspan></tspan></tspan></text></g><g class="com.sun.star.drawing.CustomShape"><path class="BoundingBox" fill="none" d="M9840 5675h3581v1019H9840z"/><path fill="#92E285" d="M11630 6692H9841V5676h3578v1016h-1789z"/><path fill="none" stroke="#000" d="M11630 6692H9841V5676h3578v1016h-1789z"/><text class="TextShape"><tspan class="TextParagraph" font-family="Liberation Sans, sans-serif" font-size="635" font-weight="400"><tspan class="TextPosition" x="11279" y="6405"><tspan>18</tspan></tspan></tspan></text></g><g class="com.sun.star.drawing.ConnectorShape"><path class="BoundingBox" fill="none" d="M7778 3438h2064v423H7778z"/><path fill="none" stroke="#000" stroke-width="81" d="M7819 3649h1419"/><path d="M9841 3649l-631-210v421l631-211z"/></g><g class="com.sun.star.drawing.ConnectorShape"><path class="BoundingBox" fill="none" d="M7778 4705h2064v423H7778z"/><path fill="none" stroke="#000" stroke-width="81" d="M7819 4916h1419"/><path d="M9841 4916l-631-210v421l631-211z"/></g><g class="com.sun.star.drawing.ConnectorShape"><path class="BoundingBox" fill="none" d="M7778 5973h2064v423H7778z"/><path fill="none" stroke="#000" stroke-width="81" d="M7819 6184h1419"/><path d="M9841 6184l-631-210v421l631-211z"/></g><g class="com.sun.star.drawing.TextShape"><path class="BoundingBox" fill="none" d="M9965 7004h3318v963H9965z"/><text class="TextShape"><tspan class="TextParagraph" font-family="Liberation Sans, sans-serif" font-size="635" font-weight="400"><tspan class="TextPosition" x="10215" y="7705"><tspan>Prediction</tspan></tspan></tspan></text></g><g class="com.sun.star.drawing.CustomShape"><path class="BoundingBox" fill="none" d="M15486 3110h1019v3659h-1019z"/><path fill="#729FCF" d="M15487 4939V3111h1016v3656h-1016V4939z"/><path fill="none" stroke="#000" d="M15487 4939V3111h1016v3656h-1016V4939z"/><text class="TextShape" transform="rotate(89.9 15775 3549)"><tspan class="TextParagraph" font-family="Liberation Sans, sans-serif" font-size="635" font-weight="400"><tspan class="TextPosition" x="15775" y="3549"><tspan>Execution</tspan></tspan></tspan></text></g><g class="com.sun.star.drawing.ConnectorShape"><path class="BoundingBox" fill="none" d="M13378 4728h2110v1498h-2110z"/><path fill="none" stroke="#000" stroke-width="81" d="M13419 6184h1034V4939h431"/><path d="M15487 4939l-631-210v421l631-211z"/></g><g class="com.sun.star.drawing.CustomShape"><path class="BoundingBox" fill="none" d="M18440 4537h3581v1019h-3581z"/><path fill="#E9B913" d="M20230 5554h-1789V4538h3578v1016h-1789z"/><path fill="none" stroke="#000" d="M20230 5554h-1789V4538h3578v1016h-1789z"/><text class="TextShape"><tspan class="TextParagraph" font-family="Liberation Sans, sans-serif" font-size="635" font-weight="400"><tspan class="TextPosition" x="18646" y="5267"><tspan>Merge plan</tspan></tspan></tspan></text></g><g class="com.sun.star.drawing.CustomShape"><path class="BoundingBox" fill="none" d="M22922 4537h1299v1019h-1299z"/><path fill="#FFD74C" d="M23571 5554h-648V4538h1296v1016h-648z"/><path fill="none" stroke="#000" d="M23571 5554h-648V4538h1296v1016h-648z"/><text class="TextShape"><tspan class="TextParagraph" font-family="Liberation Sans, sans-serif" font-size="635" font-weight="400"><tspan class="TextPosition" x="23220" y="5267"><tspan>38</tspan></tspan></tspan></text></g><g class="com.sun.star.drawing.ConnectorShape"><path class="BoundingBox" fill="none" d="M16462 4728h1104v423h-1104z"/><path fill="none" stroke="#000" stroke-width="81" d="M16503 4939h461"/><path d="M17565 4941l-631-213-1 421 632-208z"/></g><g class="com.sun.star.drawing.TextShape"><path class="BoundingBox" fill="none" d="M22201 2708h2721v1874h-2721z"/><text class="TextShape"><tspan class="TextParagraph" font-family="Liberation Sans, sans-serif" font-size="635" font-weight="400"><tspan class="TextPosition" x="22591" y="3409"><tspan>Actual </tspan></tspan></tspan><tspan class="TextParagraph" font-family="Liberation Sans, sans-serif" font-size="635" font-weight="400"><tspan class="TextPosition" x="22451" y="4120"><tspan>Latency</tspan></tspan></tspan></text></g><g class="com.sun.star.drawing.CustomShape"><path class="BoundingBox" fill="none" d="M18704 8728h5337v1019h-5337z"/><path fill="#729FCF" d="M21372 9745h-2667V8729h5334v1016h-2667z"/><path fill="none" stroke="#000" d="M21372 9745h-2667V8729h5334v1016h-2667z"/><text class="TextShape"><tspan class="TextParagraph" font-family="Liberation Sans, sans-serif" font-size="635" font-weight="400"><tspan class="TextPosition" x="19298" y="9458"><tspan>Model Training</tspan></tspan></tspan></text></g><g class="com.sun.star.drawing.ConnectorShape"><path class="BoundingBox" fill="none" d="M21157 5894h423v2836h-423z"/><path fill="none" stroke="#000" stroke-width="81" d="M21355 5935l13 2191"/><path d="M21372 8729l207-633-421 3 214 630z"/></g><g class="com.sun.star.drawing.ConnectorShape"><path class="BoundingBox" fill="none" d="M11412 7966h7335v1313h-7335z"/><path fill="none" stroke="#000" stroke-width="81" d="M18705 9237h-7082v-668"/><path d="M11623 7966l-210 632h421l-211-632z"/></g><g class="com.sun.star.drawing.TextShape"><path class="BoundingBox" fill="none" d="M1167 300h6478v2300H1167z"/><text class="TextShape"><tspan class="TextParagraph" font-family="Liberation Sans, sans-serif" font-size="458" font-weight="400"><tspan class="TextPosition" x="1417" y="840"><tspan>When a query arrives, the </tspan></tspan><tspan class="TextPosition" x="1417" y="1352"><tspan>underlying optimizer </tspan></tspan><tspan class="TextPosition" x="1417" y="1864"><tspan>generates several different </tspan></tspan><tspan class="TextPosition" x="1417" y="2376"><tspan>execution plans for the query.</tspan></tspan></tspan></text></g><g class="com.sun.star.drawing.CustomShape"><path class="BoundingBox" fill="none" d="M579 439h666v665H579z"/><path fill="#FFFF38" d="M1229 771c0 56-15 111-43 159s-68 88-116 116-103 43-159 43-111-15-159-43-88-68-116-116-43-103-43-159 15-111 43-159 68-88 116-116 103-43 159-43 111 15 159 43 88 68 116 116 43 103 43 159z"/><path fill="none" stroke="#000" stroke-width="28" d="M1229 771c0 56-15 111-43 159s-68 88-116 116-103 43-159 43-111-15-159-43-88-68-116-116-43-103-43-159 15-111 43-159 68-88 116-116 103-43 159-43 111 15 159 43 88 68 116 116 43 103 43 159h0z"/><text class="TextShape"><tspan class="TextParagraph" font-family="Liberation Sans, sans-serif" font-size="493" font-weight="400"><tspan class="TextPosition" x="773" y="940"><tspan>1</tspan></tspan></tspan></text></g><g class="com.sun.star.drawing.TextShape"><path class="BoundingBox" fill="none" d="M9160 701h6478v1788H9160z"/><text class="TextShape"><tspan class="TextParagraph" font-family="Liberation Sans, sans-serif" font-size="458" font-weight="400"><tspan class="TextPosition" x="9410" y="1241"><tspan>A predictive model scores </tspan></tspan><tspan class="TextPosition" x="9410" y="1753"><tspan>each plan variant (e.g., </tspan></tspan><tspan class="TextPosition" x="9410" y="2265"><tspan>predicts query latency)</tspan></tspan></tspan></text></g><g class="com.sun.star.drawing.CustomShape"><path class="BoundingBox" fill="none" d="M8572 840h666v665h-666z"/><path fill="#FFFF38" d="M9222 1172c0 56-15 111-43 159s-68 88-116 116-103 43-159 43-111-15-159-43-88-68-116-116-43-103-43-159 15-111 43-159 68-88 116-116 103-43 159-43 111 15 159 43 88 68 116 116 43 103 43 159z"/><path fill="none" stroke="#000" stroke-width="28" d="M9222 1172c0 56-15 111-43 159s-68 88-116 116-103 43-159 43-111-15-159-43-88-68-116-116-43-103-43-159 15-111 43-159 68-88 116-116 103-43 159-43 111 15 159 43 88 68 116 116 43 103 43 159h0z"/><text class="TextShape"><tspan class="TextParagraph" font-family="Liberation Sans, sans-serif" font-size="493" font-weight="400"><tspan class="TextPosition" x="8766" y="1341"><tspan>2</tspan></tspan></tspan></text></g><g class="com.sun.star.drawing.TextShape"><path class="BoundingBox" fill="none" d="M16553 1202h6875v1788h-6875z"/><text class="TextShape"><tspan class="TextParagraph" font-family="Liberation Sans, sans-serif" font-size="458" font-weight="400"><tspan class="TextPosition" x="16803" y="1742"><tspan>The predicted-best plan variant </tspan></tspan><tspan class="TextPosition" x="16803" y="2254"><tspan>is executed, and the actual </tspan></tspan><tspan class="TextPosition" x="16803" y="2766"><tspan>latency is recorded.</tspan></tspan></tspan></text></g><g class="com.sun.star.drawing.CustomShape"><path class="BoundingBox" fill="none" d="M15965 1341h666v666h-666z"/><path fill="#FFFF38" d="M16615 1673c0 56-15 111-43 159s-68 88-116 116-103 43-159 43-111-15-159-43-88-68-116-116-43-103-43-159 15-111 43-159 68-88 116-116 103-43 159-43 111 15 159 43 88 68 116 116 43 103 43 159z"/><path fill="none" stroke="#000" stroke-width="28" d="M16615 1673c0 56-15 111-43 159s-68 88-116 116-103 43-159 43-111-15-159-43-88-68-116-116-43-103-43-159 15-111 43-159 68-88 116-116 103-43 159-43 111 15 159 43 88 68 116 116 43 103 43 159h0z"/><text class="TextShape"><tspan class="TextParagraph" font-family="Liberation Sans, sans-serif" font-size="493" font-weight="400"><tspan class="TextPosition" x="16159" y="1842"><tspan>3</tspan></tspan></tspan></text></g><g class="com.sun.star.drawing.TextShape"><path class="BoundingBox" fill="none" d="M11743 9490h7113v2300h-7113z"/><text class="TextShape"><tspan class="TextParagraph" font-family="Liberation Sans, sans-serif" font-size="458" font-weight="400"><tspan class="TextPosition" x="11993" y="10030"><tspan>The predictive model is </tspan></tspan><tspan class="TextPosition" x="11993" y="10542"><tspan>periodically retrained using </tspan></tspan><tspan class="TextPosition" x="11993" y="11054"><tspan>Thompson sampling to improve.</tspan></tspan></tspan></text></g><g class="com.sun.star.drawing.CustomShape"><path class="BoundingBox" fill="none" d="M11155 9629h665v665h-665z"/><path fill="#FFFF38" d="M11805 9961c0 56-15 111-43 159s-68 88-116 116-103 43-159 43-111-15-159-43-88-68-116-116-43-103-43-159 15-111 43-159 68-88 116-116 103-43 159-43 111 15 159 43 88 68 116 116 43 103 43 159z"/><path fill="none" stroke="#000" stroke-width="28" d="M11805 9961c0 56-15 111-43 159s-68 88-116 116-103 43-159 43-111-15-159-43-88-68-116-116-43-103-43-159 15-111 43-159 68-88 116-116 103-43 159-43 111 15 159 43 88 68 116 116 43 103 43 159z"/><text class="TextShape"><tspan class="TextParagraph" font-family="Liberation Sans, sans-serif" font-size="493" font-weight="400"><tspan class="TextPosition" x="11349" y="10130"><tspan>4</tspan></tspan></tspan></text></g><g class="com.sun.star.drawing.TextShape"><path class="BoundingBox" fill="none" d="M22006 3948h3178v1989h-3178z"/><text class="TextShape"><tspan class="TextParagraph" font-family="Liberation Sans, sans-serif" font-size="1552" font-weight="700"><tspan class="TextPosition" x="22256" y="5478"><tspan>,</tspan></tspan></tspan></text></g><g class="com.sun.star.drawing.TextShape"><path class="BoundingBox" fill="none" d="M24085 3948h1019v1989h-1019z"/><text class="TextShape"><tspan class="TextParagraph" font-family="Liberation Sans, sans-serif" font-size="1552" font-weight="700"><tspan class="TextPosition" x="24335" y="5478"><tspan>)</tspan></tspan></tspan></text></g></g></g></g></svg>